<?xml version="1.0" standalone="no"?><!DOCTYPE svg PUBLIC "-//W3C//DTD SVG 1.1//EN" "http://www.w3.org/Graphics/SVG/1.1/DTD/svg11.dtd"><svg t="1572681682848" class="icon" viewBox="0 0 1024 1024" version="1.1" xmlns="http://www.w3.org/2000/svg" p-id="1688" width="48" height="48" xmlns:xlink="http://www.w3.org/1999/xlink"><defs><style type="text/css"></style></defs><path d="M878.50390625 486.51171875c-14.58984375 0-26.3671875 11.77734375-26.3671875 26.3671875v340.92773438s-0.08789063 0.08789063 0 0.08789062H170.19335937s-0.08789063-0.08789063-0.08789062 0V512.87890625c0-14.58984375-11.77734375-26.3671875-26.3671875-26.3671875s-26.3671875 11.77734375-26.3671875 26.3671875v341.015625c0 29.09179689 23.64257813 52.734375 52.734375 52.734375h682.03125c29.09179689 0 52.734375-23.64257813 52.734375-52.734375V512.87890625c0-14.58984375-11.77734375-26.3671875-26.3671875-26.3671875z" fill="#707070" p-id="1689"></path><path d="M491.9609375 724.34375001l0.52734375 0.52734374c5.09765625 5.09765625 11.86523438 7.734375 18.6328125 7.734375 6.76757813 0 13.53515625-2.54882813 18.6328125-7.734375l0.52734374-0.52734376 194.58984376-194.58984374c10.28320313-10.28320313 10.28320313-27.0703125 0-37.265625-10.28320313-10.28320313-27.0703125-10.28320313-37.265625 0L537.48828125 642.60546875V145.49609375c0-14.50195313-11.86523438-26.3671875-26.3671875-26.3671875s-26.3671875 11.86523438-26.3671875 26.3671875v497.109375L334.63671875 492.48828125c-10.28320313-10.28320313-27.0703125-10.28320313-37.265625 0-10.28320313 10.28320313-10.28320313 27.0703125 0 37.265625l194.58984375 194.58984376z" fill="#707070" p-id="1690"></path></svg>