<?xml version="1.0" standalone="no"?><!DOCTYPE svg PUBLIC "-//W3C//DTD SVG 1.1//EN" "http://www.w3.org/Graphics/SVG/1.1/DTD/svg11.dtd"><svg t="1572681142646" class="icon" viewBox="0 0 1024 1024" version="1.1" xmlns="http://www.w3.org/2000/svg" p-id="1657" width="48" height="48" xmlns:xlink="http://www.w3.org/1999/xlink"><defs><style type="text/css"></style></defs><path d="M512 876.078125c-16.875 0-33.75-5.0625-48.09375-15.609375-1.6875-1.265625-204.1875-164.953125-287.296875-287.71875C149.1875 531.828125 111.21875 475.71875 111.21875 395.140625 111.21875 258.875 219.640625 147.921875 352.53125 147.921875c59.484375 0 115.59375 21.9375 159.46875 61.59375a236.5875 236.5875 0 0 1 159.46875-61.59375c132.890625 0 241.3125 110.953125 241.3125 247.21875 0 80.578125-37.96875 136.6875-65.8125 177.609375-83.109375 122.765625-285.609375 286.453125-287.296875 287.71875-14.34375 10.546875-30.796875 15.609375-47.671875 15.609375zM352.53125 220.90625c-92.8125 0-168.328125 78.046875-168.328125 174.234375 0 58.21875 28.265625 99.984375 53.15625 136.6875 70.453125 104.203125 251.859375 255.65625 270 270 2.953125 2.109375 6.75 2.109375 9.703125 0 18.140625-13.921875 199.546875-165.375 270-269.578125 24.890625-36.703125 53.15625-78.46875 53.15625-136.6875 0-96.1875-75.515625-174.234375-168.75-174.234375-51.046875 0-98.71875 23.625-130.78125 64.546875-7.171875 8.015625-17.71875 13.078125-28.6875 13.078125-10.96875 0-21.9375-5.0625-28.6875-13.921875a165.2484375 165.2484375 0 0 0-130.78125-64.125z" fill="#707070" p-id="1658"></path></svg>