<?xml version="1.0" standalone="no"?><!DOCTYPE svg PUBLIC "-//W3C//DTD SVG 1.1//EN" "http://www.w3.org/Graphics/SVG/1.1/DTD/svg11.dtd"><svg t="1572680007159" class="icon" viewBox="0 0 1024 1024" version="1.1" xmlns="http://www.w3.org/2000/svg" p-id="1537" width="48" height="48" xmlns:xlink="http://www.w3.org/1999/xlink"><defs><style type="text/css"></style></defs><path d="M634.84650382 350.87658857H377.36801975c-120.11243899 0-217.48242963 97.36999063-217.48242962 217.48242962 0 120.13315161 97.36999063 217.48242963 217.48242962 217.48242963h289.97657284c112.88373728 0 205.67624059-85.97805385 216.44679902-196.02416323l0.20712612-2.34052521a20.71261235 20.71261235 0 0 1 20.6297619-19.11774119h22.45247178a19.20059165 19.20059165 0 0 1 19.13845381 20.58833667c-10.54271968 144.82258551-131.3593875 259.03192999-278.87461263 259.03192999h-289.97657284c-154.43323765 0-279.62026667-125.18702901-279.62026666-279.62026666s125.18702901-279.62026667 279.62026666-279.62026667h251.3268382l-38.13191932-38.13191933a20.71261235 20.71261235 0 0 1-6.06879543-14.64381692v-36.64061124a18.72420157 18.72420157 0 0 1 31.95956085-13.2560719l126.6369119 126.63691187a14.41597819 14.41597819 0 0 1 0 20.38121056l-126.6369119 126.61619927a18.72420157 18.72420157 0 0 1-31.95956085-13.25607191v-36.61989862a20.71261235 20.71261235 0 0 1 6.06879543-14.64381693l44.28356519-44.3042778z" p-id="1538"></path></svg>