<?xml version="1.0" standalone="no"?><!DOCTYPE svg PUBLIC "-//W3C//DTD SVG 1.1//EN" "http://www.w3.org/Graphics/SVG/1.1/DTD/svg11.dtd"><svg t="1572684067575" class="icon" viewBox="0 0 1024 1024" version="1.1" xmlns="http://www.w3.org/2000/svg" p-id="1692" width="48" height="48" xmlns:xlink="http://www.w3.org/1999/xlink"><defs><style type="text/css"></style></defs><path d="M759.4395752 880.64624023H266.20837402c-67.23632813 0-121.94824219-54.71191406-121.94824218-121.94824218V265.54919433c0-67.23632813 54.71191406-121.94824219 121.94824218-121.94824218h493.14880371c67.23632813 0 121.94824219 54.71191406 121.94824219 121.94824218v493.14880372C881.38781739 825.93432617 826.67590332 880.64624023 759.4395752 880.64624023zM266.20837402 189.74353027c-41.7755127 0-75.80566406 34.03015137-75.80566405 75.80566407v493.14880371c0 41.7755127 34.03015137 75.80566406 75.80566406 75.80566406h493.1488037c41.7755127 0 75.80566406-34.03015137 75.80566407-75.80566406V265.54919433c0-41.7755127-34.03015137-75.80566406-75.80566407-75.80566405H266.20837402z" fill="#e6e6e6" p-id="1693"></path></svg>