<?xml version="1.0" standalone="no"?><!DOCTYPE svg PUBLIC "-//W3C//DTD SVG 1.1//EN" "http://www.w3.org/Graphics/SVG/1.1/DTD/svg11.dtd"><svg t="1572682756242" class="icon" viewBox="0 0 1024 1024" version="1.1" xmlns="http://www.w3.org/2000/svg" p-id="1686" width="48" height="48" xmlns:xlink="http://www.w3.org/1999/xlink"><defs><style type="text/css"></style></defs><path d="M148.07111604 891.73674971a25.10368617 25.10368617 0 0 0 9.49466151 1.91384537L434.87451667 893.65059508a24.85513482 24.85513482 0 1 0 0-49.71026963l-217.30844369 0L594.02194489 467.48445355a24.83027968 24.83027968 0 1 0-35.14516062-35.14516063L182.42091235 808.77030969l0-217.30844368a24.85513482 24.85513482 0 1 0-49.71026963 0L132.71064272 868.77060513a24.97941049 24.97941049 0 0 0 15.36047332 22.96614458z" fill="#e6e6e6" p-id="1687"></path><path d="M157.56577755 437.80742258a24.85513482 24.85513482 0 0 0 24.8551348-24.85513481l0-264.95573714 695.94377482 0 0 695.94377482-265.52740523 0a24.85513482 24.85513482 0 1 0 0 49.71026963L903.21982198 893.65059508a24.85513482 24.85513482 0 0 0 24.85513482-24.85513482l0-745.65404444a24.85513482 24.85513482 0 0 0-24.85513482-24.85513482l-745.65404443 0a24.85513482 24.85513482 0 0 0-24.85513483 24.85513482l0 289.81087195a24.85513482 24.85513482 0 0 0 24.85513483 24.85513481z" fill="#e6e6e6" p-id="1688"></path></svg>