<?xml version="1.0" standalone="no"?><!DOCTYPE svg PUBLIC "-//W3C//DTD SVG 1.1//EN" "http://www.w3.org/Graphics/SVG/1.1/DTD/svg11.dtd"><svg t="1572681614847" class="icon" viewBox="0 0 1024 1024" version="1.1" xmlns="http://www.w3.org/2000/svg" p-id="1657" width="48" height="48" xmlns:xlink="http://www.w3.org/1999/xlink"><defs><style type="text/css"></style></defs><path d="M220.32500029 803.67499971A409.91249971 409.91249971 0 0 1 99.50000029 512a409.91249971 409.91249971 0 0 1 120.825-291.7125A409.91249971 409.91249971 0 0 1 512 99.50000029a409.87500029 409.87500029 0 0 1 291.7125 120.78749971A409.91249971 409.91249971 0 0 1 924.49999971 512a409.87500029 409.87500029 0 0 1-120.78749971 291.67499971A409.91249971 409.91249971 0 0 1 512 924.49999971a409.91249971 409.91249971 0 0 1-291.67499971-120.825zM174.5 512a337.87500029 337.87500029 0 0 0 337.5 337.5 337.87500029 337.87500029 0 0 0 337.5-337.5 338.10000029 338.10000029 0 0 0-225-318.22499971V624.5a150.00000029 150.00000029 0 0 1-150.00000029 150.00000029 150.00000029 150.00000029 0 0 1-149.99999942-150.00000029 150.00000029 150.00000029 0 0 1 149.99999942-150.00000029 149.13749971 149.13749971 0 0 1 75.00000058 20.10000058V176.56250029A339.37499971 339.37499971 0 0 0 512 174.5a337.87500029 337.87500029 0 0 0-337.5 337.5z m225 112.5a74.99999971 74.99999971 0 0 0 74.99999971 74.99999971 74.99999971 74.99999971 0 0 0 75.00000058-74.99999971 74.99999971 74.99999971 0 0 0-75.00000058-74.99999971 74.99999971 74.99999971 0 0 0-74.99999971 74.99999971z" fill="#707070" p-id="1658"></path></svg>