<?xml version="1.0" standalone="no"?><!DOCTYPE svg PUBLIC "-//W3C//DTD SVG 1.1//EN" "http://www.w3.org/Graphics/SVG/1.1/DTD/svg11.dtd"><svg t="1572681164081" class="icon" viewBox="0 0 1024 1024" version="1.1" xmlns="http://www.w3.org/2000/svg" p-id="1657" width="48" height="48" xmlns:xlink="http://www.w3.org/1999/xlink"><defs><style type="text/css"></style></defs><path d="M322.5078125 311.08203125v350.59570313c-18.10546875-3.95507813-37.96875-3.1640625-58.79882813 6.24023437-29.8828125 13.44726563-51.59179688 41.74804688-55.63476562 74.26757813-7.11914063 57.83203125 37.70507813 106.96289063 94.13085938 106.96289062 51.06445313 0 92.54882813-40.34179688 94.65820312-90.79101563h0.17578125V399.8515625l277.91015625-86.04492188v266.48437501c-18.01757813-3.95507813-37.70507813-3.1640625-58.44726563 6.06445312-29.97070313 13.27148438-51.76757813 41.57226563-55.98632812 74.09179688-7.3828125 57.91992188 37.6171875 107.31445313 94.04296875 107.31445312 51.06445313 0 92.54882813-40.34179688 94.65820313-90.79101563h0.17578124V216.77539062c0-26.54296875-24.43359375-46.40625-50.44921875-40.86914062L355.64257812 270.21289062c-19.3359375 4.04296875-33.13476563 21.09375-33.13476562 40.86914063z" fill="#707070" p-id="1658"></path></svg>