<?xml version="1.0" standalone="no"?><!DOCTYPE svg PUBLIC "-//W3C//DTD SVG 1.1//EN" "http://www.w3.org/Graphics/SVG/1.1/DTD/svg11.dtd"><svg t="1572681320963" class="icon" viewBox="0 0 1024 1024" version="1.1" xmlns="http://www.w3.org/2000/svg" p-id="1863" width="48" height="48" xmlns:xlink="http://www.w3.org/1999/xlink"><defs><style type="text/css"></style></defs><path d="M721.7 523.7c0 86.4-9.9 171-30.6 251.1-1.8 6.3-4.5 11.7-8.1 16.2-7.2 9.9-18 15.3-29.7 17.1h-5.4c-9.9 0-19.8-3.6-27-9L483.2 692.9c-1.8-0.9-3.6-1.8-5.4-1.8h-99c-16.2 0-30.6-9-38.7-22.5C316.7 629 305 579.5 305 523.7c0-56.7 11.7-108.9 35.1-155.7 7.2-15.3 23.4-25.2 40.5-25.2h98.1c1.8 0 3.6-0.9 5.4-1.8L620 234.8c5.4-3.6 10.8-6.3 17.1-8.1 11.7-2.7 23.4-0.9 34.2 5.4 9.9 6.3 17.1 16.2 19.8 27.9 20.7 87.3 30.6 176.4 30.6 263.7z" fill="#707070" p-id="1864"></path></svg>