<?xml version="1.0" standalone="no"?><!DOCTYPE svg PUBLIC "-//W3C//DTD SVG 1.1//EN" "http://www.w3.org/Graphics/SVG/1.1/DTD/svg11.dtd"><svg t="1572681448603" class="icon" viewBox="0 0 1024 1024" version="1.1" xmlns="http://www.w3.org/2000/svg" p-id="1662" width="48" height="48" xmlns:xlink="http://www.w3.org/1999/xlink"><defs><style type="text/css"></style></defs><path d="M512 99.50000029C284.18164033 99.50000029 99.50000029 284.18164033 99.50000029 512s184.68164092 412.49999971 412.49999971 412.49999971 412.49999971-184.68164092 412.49999971-412.49999971S739.81835967 99.50000029 512 99.50000029z m97.74609346 439.88671846l-234.37499942 154.6875A32.81249971 32.81249971 0 0 1 324.50000029 666.6875V357.34179658a32.81249971 32.81249971 0 0 1 50.88281221-27.38671875l234.37500029 154.6875a32.81249971 32.81249971 0 0 1 0 54.7734375zM699.49999971 680.75a18.74999971 18.74999971 0 0 1-37.49999942 0V343.25a18.74999971 18.74999971 0 0 1 37.49999942 0z" fill="#707070" p-id="1663"></path></svg>