<?xml version="1.0" standalone="no"?><!DOCTYPE svg PUBLIC "-//W3C//DTD SVG 1.1//EN" "http://www.w3.org/Graphics/SVG/1.1/DTD/svg11.dtd"><svg t="1572681021589" class="icon" viewBox="0 0 1024 1024" version="1.1" xmlns="http://www.w3.org/2000/svg" p-id="1788" width="48" height="48" xmlns:xlink="http://www.w3.org/1999/xlink"><defs><style type="text/css"></style></defs><path d="M816.16810815 156.98088694h-598.91183058c-12.47544653 0-26.37472119 14.56598805-26.37472043 27.05273438v293.80580423a22.60044653 22.60044653 0 0 0 45.20089231 1e-8V202.18178002h553.7109375v553.7109375H511.06208181a22.60044653 22.60044653 0 0 0 0 45.20089308h305.10602633c12.47544653 0 18.82617188-5.67271217 18.82617189-18.14815871v-598.91183057c0-12.48674632-6.35072534-27.05273438-18.82617188-27.05273438z" fill="#707070" p-id="1789"></path><path d="M454.56096507 315.18401195h248.60491116a11.30022289 11.30022289 0 1 0-1e-8-22.60044577h-248.60491115a11.30022289 11.30022289 0 1 0 0 22.60044577zM318.95828661 315.18401195h45.20089308a11.30022289 11.30022289 0 1 0 0-22.60044577h-45.20089308a11.30022289 11.30022289 0 1 0 0 22.60044577zM454.56096507 428.18624463h248.60491116a11.30022289 11.30022289 0 1 0-1e-8-22.60044652h-248.60491115a11.30022289 11.30022289 0 1 0 0 22.60044653zM318.95828661 428.18624463h45.20089308a11.30022289 11.30022289 0 1 0 0-22.60044652h-45.20089308a11.30022289 11.30022289 0 1 0 0 22.60044653zM454.56096507 541.18847656h248.60491116a11.30022289 11.30022289 0 1 0-1e-8-22.60044653h-248.60491115a11.30022289 11.30022289 0 1 0 0 22.60044653zM318.95828661 541.18847656h45.20089308a11.30022289 11.30022289 0 1 0 0-22.60044653h-45.20089308a11.30022289 11.30022289 0 1 0 0 22.60044653zM703.16587622 631.59026194h-192.10379442a11.30022289 11.30022289 0 1 0 0 22.60044654h192.10379442a11.30022289 11.30022289 0 1 0 0-22.60044653zM465.2735769 688.09137867L227.38127758 551.07617188c-6.99483839-4.03417969-16.30622243-4.03417969-23.31235984 0s-13.18736061 11.50362744-13.1873606 19.57198682v274.03041284c0 8.07965993 6.19252221 15.53780714 13.1873606 19.57198682 3.50306909 2.02273973 9.51478784 3.02845971 13.42466451 3.02845972s7.61635034-1.00571998 11.10811964-3.02845972l237.16908472-137.0152068c6.99483839-4.03417969 11.11941942-11.50362744 11.1194202-19.57198683s-4.62179152-15.53780714-11.61662991-19.57198605zM236.08244944 805.54589844V609.79213159l169.50334866 97.87123314-169.50334866 97.88253371z" fill="#707070" p-id="1790"></path><path d="M353.05106006 717.06515089a11.322824 11.322824 0 0 0 15.67340992-3.13016239 11.30022289 11.30022289 0 0 0-3.13016161-15.67340914l-67.80133962-45.20089308a11.30022289 11.30022289 0 1 0-12.54324755 18.80357153l67.80133885 45.20089308z" fill="#707070" p-id="1791"></path></svg>