<?xml version="1.0" standalone="no"?><!DOCTYPE svg PUBLIC "-//W3C//DTD SVG 1.1//EN" "http://www.w3.org/Graphics/SVG/1.1/DTD/svg11.dtd"><svg t="1572680326489" class="icon" viewBox="0 0 1024 1024" version="1.1" xmlns="http://www.w3.org/2000/svg" p-id="1567" width="48" height="48" xmlns:xlink="http://www.w3.org/1999/xlink"><defs><style type="text/css"></style></defs><path d="M121.98798828 369.02392578h142.97607422c7.16835938 0 28.54423828 7.16835938 35.71259766 14.33583984l50.0484375 50.0484375c14.33583984 21.50419922 42.88007813 21.50419922 64.25595703 0 21.50419922-14.33583984 21.50419922-42.88007813 0-64.25595703l-50.0484375-50.0484375c-21.37587891-21.37587891-64.25595703-42.88007813-100.0959961-42.88007812H121.98886719c-28.54423828 0-42.88007813 21.50419922-42.88007813 42.88007812 0 28.41591797 21.50419922 49.92011719 42.88007813 49.92011719z m536.06513672 0h78.59179687v57.21591797c0 14.33583984 7.16835938 21.50419922 21.50419922 14.33583984l164.35195313-107.13603515c14.33583984-7.16835938 14.33583984-21.50419922 0-28.54423828L758.14912109 197.759375c-14.33583984-7.16835938-21.50419922 0-21.50419922 14.33583984v78.46435547h-78.59179687c-71.42431641 0-85.75927734 35.71259766-135.80771484 85.75927735L357.89345703 611.83847656c-28.54423828 28.54423828-114.30351563 57.21591797-157.18447266 57.21591797H122.1171875c-28.54423828 0-42.88007813 21.37587891-42.88007813 42.88007813 0 28.54423828 21.37587891 42.88007813 42.88007813 42.88007812h78.59179688c71.42431641 0 171.5203125-35.71259766 221.56787109-85.75927734l164.35195312-235.77539063c35.71259766-35.71259766 28.54423828-64.25595703 71.42431641-64.25595703z m264.44794922 328.70390625L758.14912109 583.42431641c-14.33583984-7.16835938-21.50419922 0-21.50419922 14.33583984v71.42431641h-78.59179687c-7.16835938 0-28.54423828-7.16835938-35.71259766-14.33583985l-50.0484375-50.0484375c-14.33583984-21.50419922-42.88007813-21.50419922-64.25595703 0-21.37587891 14.33583984-21.37587891 42.88007813 0 64.25595703l50.0484375 50.0484375c21.50419922 21.37587891 64.25595703 42.88007813 100.0959961 42.88007813h78.59179687v57.21591797c0 14.33583984 7.16835938 21.37587891 21.50419922 14.33583984L922.62851563 726.40039063c14.08007813-7.16835938 14.08007813-21.50419922-0.12832032-28.67167969z" fill="#707070" p-id="1568"></path></svg>