<?xml version="1.0" standalone="no"?><!DOCTYPE svg PUBLIC "-//W3C//DTD SVG 1.1//EN" "http://www.w3.org/Graphics/SVG/1.1/DTD/svg11.dtd"><svg t="1572684980727" class="icon" viewBox="0 0 1024 1024" version="1.1" xmlns="http://www.w3.org/2000/svg" p-id="4539" width="16" height="16" xmlns:xlink="http://www.w3.org/1999/xlink"><defs><style type="text/css"></style></defs><path d="M170.666666 341.333334 341.333334 341.333334 341.333334 170.666666 170.666666 170.666666 170.666666 341.333334 170.666666 341.333334ZM426.666666 853.333336 597.333334 853.333336 597.333334 682.666666 426.666666 682.666666 426.666666 853.333336 426.666666 853.333336ZM170.666666 853.333336 341.333334 853.333336 341.333334 682.666666 170.666666 682.666666 170.666666 853.333336 170.666666 853.333336ZM170.666666 597.333334 341.333334 597.333334 341.333334 426.666666 170.666666 426.666666 170.666666 597.333334 170.666666 597.333334ZM426.666666 597.333334 597.333334 597.333334 597.333334 426.666666 426.666666 426.666666 426.666666 597.333334 426.666666 597.333334ZM682.666666 170.666666 682.666666 341.333334 853.333336 341.333334 853.333336 170.666666 682.666666 170.666666 682.666666 170.666666ZM426.666666 341.333334 597.333334 341.333334 597.333334 170.666666 426.666666 170.666666 426.666666 341.333334 426.666666 341.333334ZM682.666666 597.333334 853.333336 597.333334 853.333336 426.666666 682.666666 426.666666 682.666666 597.333334 682.666666 597.333334ZM682.666666 853.333336 853.333336 853.333336 853.333336 682.666666 682.666666 682.666666 682.666666 853.333336 682.666666 853.333336Z" p-id="4540" fill="#dbdbdb"></path></svg>