<?xml version="1.0" standalone="no"?><!DOCTYPE svg PUBLIC "-//W3C//DTD SVG 1.1//EN" "http://www.w3.org/Graphics/SVG/1.1/DTD/svg11.dtd"><svg t="1572681315174" class="icon" viewBox="0 0 1024 1024" version="1.1" xmlns="http://www.w3.org/2000/svg" p-id="1657" width="48" height="48" xmlns:xlink="http://www.w3.org/1999/xlink"><defs><style type="text/css"></style></defs><path d="M565.1 260c20.7 87.3 31.5 175.5 31.5 262.8 0 86.4-9.9 171-30.6 251.1-1.8 6.3-4.5 11.7-8.1 16.2-7.2 9.9-18 15.3-29.7 17.1h-5.4c-9.9 0-19.8-3.6-27-9L357.2 692.9c-1.8-0.9-3.6-1.8-5.4-1.8h-99c-16.2 0-30.6-9-38.7-22.5C190.7 629 179 579.5 179 523.7c0-56.7 11.7-108.9 35.1-155.7 7.2-15.3 23.4-25.2 40.5-25.2h98.1c1.8 0 3.6-0.9 5.4-1.8L494 234.8c5.4-3.6 10.8-6.3 17.1-8.1 11.7-2.7 23.4-0.9 34.2 5.4 9.9 6.3 17.1 16.2 19.8 27.9z m257.4 61.2c-1.8-9.9-10.8-16.2-20.7-14.4-9.9 1.8-16.2 10.8-14.4 20.7 11.7 64.8 18 130.5 18 195.3s-6.3 128.7-18 189.9c-1.8 9.9 4.5 18.9 14.4 20.7h3.6c8.1 0 16.2-6.3 18-14.4 12.6-63 18-129.6 18-196.2-0.9-66.6-7.2-134.1-18.9-201.6z m-105.3 52.2c-9.9 0.9-17.1 9.9-15.3 19.8 5.4 43.2 8.1 87.3 8.1 130.5s-2.7 86.4-8.1 127.8c-0.9 9.9 5.4 18.9 15.3 19.8h2.7c9 0 17.1-6.3 18-16.2 5.4-43.2 8.1-87.3 8.1-132.3s-2.7-90-8.1-134.1c-1.8-9.9-10.8-17.1-20.7-15.3z" fill="#707070" p-id="1658"></path></svg>