<?xml version="1.0" standalone="no"?><!DOCTYPE svg PUBLIC "-//W3C//DTD SVG 1.1//EN" "http://www.w3.org/Graphics/SVG/1.1/DTD/svg11.dtd"><svg t="1572681231445" class="icon" viewBox="0 0 1024 1024" version="1.1" xmlns="http://www.w3.org/2000/svg" p-id="1667" width="48" height="48" xmlns:xlink="http://www.w3.org/1999/xlink"><defs><style type="text/css"></style></defs><path d="M105.74316406 236.99375h535.25654297c17.51308594 4.98779297 29.43808594 12.6 37.125 21.99375 7.425 9 9.80683594 17.68095703 9.80683594 22.03154297v188.30566406l230.58720703-148.25566406v364.59316406L687.93154297 537.425v130.1625a21.88125 21.88125 0 1 0 43.74316406 0v-54.88154297l230.60654297 153.09404297V240.94970703l-230.625 148.23808594V280.99970703c0-13.6125-5.00625-31.87441406-19.74375-49.79970703-14.0625-17.11845703-34.78095703-29.99970703-62.49375-37.2375l-2.71845703-0.71191406H62v535.21875l0.675 2.66220703c2.62529297 10.25595703 8.06220703 24.59970703 17.30566406 39.22470703 16.46279297 26.06220703 39.46904297 42.82470703 69.56279297 43.12529297h560.25a21.88125 21.88125 0 0 0 0-43.74404297H149.75c-12.65625-0.13183594-23.5125-8.02441406-32.81220703-22.74345703a105.65595703 105.65595703 0 0 1-11.21308594-24.33779297V236.99375z" fill="#707070" p-id="1668"></path><path d="M242.97558594 347.1875a40.87529297 40.87529297 0 1 1-81.73212891-0.03779297 40.87529297 40.87529297 0 0 1 81.73125 0.01933594z" fill="#707070" p-id="1669"></path></svg>